<?xml version="1.0" encoding="utf-8"?>
<!-- Generator: Adobe Illustrator 19.0.0, SVG Export Plug-In . SVG Version: 6.00 Build 0)  -->
<svg version="1.1" id="Layer_1" xmlns="http://www.w3.org/2000/svg" xmlns:xlink="http://www.w3.org/1999/xlink" x="0px" y="0px"
	 viewBox="0 0 200 200" style="enable-background:new 0 0 200 200;" xml:space="preserve">
<style type="text/css">
	.st0{fill:#C5001C;}
</style>
<g>
	<path class="st0" d="M100,0.5c54.9,0,99.5,44.6,99.5,99.5s-44.6,99.5-99.5,99.5c-31.8,0-64.7-19.9-99.5,0c19.9-34.8,0-76.4,0-99.5
		C0.5,45.1,45.1,0.5,100,0.5L100,0.5z M100,15.4c-46.7,0-84.6,37.9-84.6,84.6c0,19.7,12.4,54.7,7.5,77.1c22.4-5,50.1,7.5,77.1,7.5
		c46.7,0,84.6-37.9,84.6-84.6C184.6,53.3,146.7,15.4,100,15.4z"/>
	<path id="XMLID_2_" class="st0" d="M104.3,119.9h-8.5c0-8.7,0-21.8,4.3-26.1c8.5-8.7,12.8-17.5,12.8-21.8c0-8.7-8.5-17.4-17.1-17.4
		c-2.7,0-7.3,1.4-9.2,2.9c-1.4,1.1-2.1,2.2-2.1,3.4c0,0.8,0.5,2,1.4,3.7c2.2,3.8,3.3,7,3.3,9.7c0,2.4-0.9,4.4-2.6,6.1
		c-1.7,1.6-3.8,2.4-6.4,2.4c-2.8,0-5.2-1-7.2-2.9c-1.9-1.9-2.9-4.5-2.9-7.7c0-5.8,2.6-10.9,7.8-15.2c5.2-4.4,12.4-6.6,21.7-6.6
		c9.8,0,17.4,2.3,22.5,6.8c5.2,4.6,7.8,10.1,7.8,16.5c0,11.5-9.1,20.5-17.1,24.6C104.3,102.5,104.3,115.6,104.3,119.9z"/>
	<path id="XMLID_1_" class="st0" d="M100,129.9c4.1,0,7.7,1.4,10.6,4.3c2.9,2.9,4.4,6.4,4.4,10.5s-1.5,7.7-4.4,10.6
		c-2.9,2.9-6.4,4.4-10.6,4.4s-7.7-1.5-10.6-4.4c-2.9-2.9-4.4-6.5-4.4-10.6c0-4.1,1.4-7.6,4.4-10.5C92.3,131.3,95.9,129.9,100,129.9z
		"/>
</g>
</svg>
