<?xml version="1.0" encoding="utf-8"?>
<!-- Generator: Adobe Illustrator 19.0.0, SVG Export Plug-In . SVG Version: 6.00 Build 0)  -->
<svg version="1.1" id="Layer_1" xmlns="http://www.w3.org/2000/svg" xmlns:xlink="http://www.w3.org/1999/xlink" x="0px" y="0px"
	 viewBox="0 0 946.7 299" style="enable-background:new 0 0 946.7 299;" xml:space="preserve">
<style type="text/css">
	.st0{fill:#C5001C;}
</style>
<g id="XMLID_3_">
	<g id="XMLID_28_">
		<path id="XMLID_29_" class="st0" d="M0,77c4.6-15.1,7.2-31.5,7.9-49C7.9,26.6,8,25.3,8,24c0-2.7-0.2-5.4-0.5-8
			c6.7,0.8,11.9,1.5,15.6,2.1c1.9,0.4,2.8,1.1,2.8,2.3c0,0.8-0.2,1.8-0.7,2.9c-0.5,1.2-0.9,3.3-1.1,6.4c-0.2,4-0.5,7.1-0.7,9.1h9
			V28.5c0-10.5-0.5-20-1.5-28.4C38,0.4,44.4,0.9,50.2,1.6c2,0.2,3,0.8,3,1.8c0,0.7-0.4,2-1.2,3.9C51.3,9.1,51,16.1,51,28.2v10.6
			l14.6-0.4c1.3,0,2,0.6,2,1.9v12.7C76.5,42.5,83.5,29.8,88.5,15C90,9.8,91.2,4.8,91.8,0c7.6,1.2,13.4,2.2,17.6,3.2
			c2.1,0.6,3.2,1.5,3.2,2.7c0,1-0.6,2.3-1.8,3.8c-1,1.2-2.3,4-3.8,8.6c-1.3,4.1-3.3,9.3-5.9,15.4h43.6l19.8-0.4
			c1.8,0,2.7,0.8,2.7,2.5c-0.2,6.7-0.4,11.6-0.4,14.5c-0.4,40.2-2.2,70.2-5.5,90.1c-1.6,10.9-4.8,18.6-9.7,23.3
			c-4.4,4.2-10.5,6.3-18.2,6.3c-5.7,0-10.2-0.1-13.4-0.4c-3-0.2-4.8-0.6-5.4-1.3c-0.5-0.5-1-2.3-1.6-5.3c-1.1-5.7-2.6-10.3-4.5-14
			c7.2,1.2,14.5,1.8,21.9,1.8c4.3,0,7.4-1.5,9.4-4.6c1.5-2.3,2.6-6,3.4-11c3.3-23.8,5.2-50.8,5.8-81c-7.3,25.9-16.3,47.4-27.1,64.6
			c-10,16-22.4,29.7-37.1,41.1c-2.4,1.8-4,2.7-4.8,2.7c-1,0-2.3-1.2-3.9-3.6c-2.8-4.2-6.2-7.6-10.2-10.2
			c18.2-12.3,32.9-27.5,44.2-45.6c9.1-14.6,16.6-32.2,22.5-52.8h-12.3c-8.5,28.1-22.4,50.9-41.4,68.2c-2,2-3.5,3-4.5,3
			c-0.9,0-2.2-1.1-3.7-3.2c-3-3.7-6.5-6.9-10.5-9.6c20.2-14.8,34.2-34.2,42.2-58.5h-9.9c-4,6.5-8.6,12.8-13.9,18.9
			c-2,2.1-3.3,3.2-3.9,3.2c-0.7,0-2.1-1-4.1-3c-2.9-2.8-6.5-5.4-10.7-7.9l4.9-5c-0.7,0-2.4-0.1-5.1-0.2c-3.2-0.1-6-0.1-8.4-0.2v30.2
			c7.4-3.6,13.3-6.6,17.5-8.9c0,5.6,0.1,9.8,0.3,12.6c0.1,1.5,0.2,2.4,0.2,2.9c0,1.4-0.4,2.5-1.1,3.2c-0.5,0.5-1.7,1.3-3.8,2.3
			c-4.9,2.7-9.3,4.9-13.1,6.7V137l0.4,32.9c0,1-0.1,1.6-0.4,1.7c-0.2,0.2-0.8,0.3-1.7,0.3H34c-1,0-1.6-0.1-1.7-0.4
			c-0.2-0.2-0.3-0.8-0.3-1.6l0.4-32.7V114c-1.6,0.7-5.9,2.4-13.1,5.2c-3.3,1.5-5.3,2.7-6,3.4c-1.2,1.2-2.3,1.8-3.2,1.8
			c-1.3,0-2.3-0.7-2.9-2.1c-1.5-3.7-3.7-9.7-6.4-18.1c5.5-1.2,11.3-2.8,17.6-4.8c3.2-1,7.9-2.7,14.1-4.8V56.3H21.5
			c-1,8.4-2.3,15.7-3.9,22c-0.9,3-1.6,4.5-2.4,4.5c-0.5,0-1.9-0.6-4.1-1.9C8.1,79.3,4.5,78.1,0,77z"/>
		<path id="XMLID_31_" class="st0" d="M265.1,52.1c1.9-6.8,3.8-14.6,5.6-23.6c1.3-7.5,1.9-14.4,1.9-20.8c9.1,2,16.6,4,22.4,6.1
			c2,0.6,3,1.9,3,3.8c0,1-0.4,2-1.3,2.8c-1.5,2-2.8,4.3-3.8,7.1c-0.9,2.8-2.1,6.8-3.6,11.9c-1.4,4.7-2.5,8.2-3.2,10.6
			c4.6-0.5,9.6-0.8,15-0.8c17.9,0,26.8,12,26.8,36.1c0,11.3-1,22.6-3,33.9c-1.8,10.4-4.2,18.7-7.1,24.8
			c-5.3,11.7-13.7,17.6-25.2,17.6c-8.8,0-15.3-0.9-19.5-2.8c-2.3-0.9-3.4-2.7-3.4-5.2c-0.7-7.7-1.9-13.5-3.6-17.4
			c7,3.2,14.1,4.8,21.6,4.8c3.3,0,5.8-0.8,7.6-2.4c1.5-1.5,3-4,4.4-7.6c4.9-12.9,7.3-28.5,7.3-46.7c0-7-0.9-11.6-2.6-14
			c-1.6-2.1-4.3-3.2-8.1-3.2c-4.1,0-9.4,0.4-15.7,1.3c-12.3,35.7-24.8,65-37.7,88.1c-0.7,1.5-1.6,2.3-2.7,2.3
			c-0.6,0-1.3-0.2-2.1-0.6c-5.8-2.8-10.1-5.5-13-8.2c-1-1-1.5-1.9-1.5-2.7c0-0.7,0.2-1.4,0.7-2.1c14.8-25.7,26.3-50.2,34.3-73.5
			c-4.3,0.7-10.4,1.7-18.3,3.2c-3.4,0.7-6.8,1.7-10.3,3c-0.9,0.3-1.6,0.5-2.3,0.5c-1.8,0-3-1-3.8-2.9c-1.8-4.6-3.7-11.1-5.8-19.3
			c6.9,0,15.1-0.4,24.7-1.3C249.7,54.3,257.1,53.4,265.1,52.1z M329.7,50.7c7-4.8,12-8,15.1-9.6c0.5-0.2,0.9-0.4,1.3-0.4
			c0.7,0,1.4,0.4,2.3,1.3c14.2,13.4,24.6,28.5,31.1,45.6c0.3,0.7,0.5,1.2,0.5,1.6c0,0.7-0.4,1.4-1.2,2.1c-3.5,3.3-8.2,6.4-14.1,9.3
			c-0.7,0.4-1.3,0.5-1.9,0.5c-1.2,0-2-0.7-2.4-2C352.7,78.8,342.5,62.7,329.7,50.7z M340,21.9l10-7c0.4-0.3,0.7-0.5,1.1-0.5
			c0.5,0,1,0.3,1.6,0.8c6.4,4.9,12.3,11.6,17.8,20c0.4,0.5,0.5,0.9,0.5,1.4c0,0.5-0.4,1.1-1.1,1.6l-7.9,5.8c-0.5,0.4-1,0.6-1.5,0.6
			c-0.6,0-1.2-0.4-1.7-1.2C353.1,34.6,346.8,27.4,340,21.9z M357.3,9.4l9.3-6.8c0.5-0.3,0.9-0.5,1.2-0.5c0.4,0,1,0.3,1.6,0.8
			c7.1,5.5,13,12,17.7,19.4c0.4,0.5,0.5,1,0.5,1.5c0,0.7-0.4,1.3-1.1,1.8l-7.5,5.9c-0.5,0.4-1,0.6-1.5,0.6c-0.6,0-1.2-0.4-1.7-1.2
			C370.7,22.7,364.5,15.5,357.3,9.4z"/>
		<path id="XMLID_36_" class="st0" d="M522.6,80.2c-0.6,11.4-1.8,20.7-3.6,27.9c-1.6,6.7-4.1,13.3-7.5,19.8
			c-3.8,7.6-9.1,14.9-15.9,21.8c-5.6,5.7-11.3,10.2-17,13.6c-2.4,1.5-4.2,2.3-5.6,2.3c-1.4,0-2.7-0.6-3.9-1.8c-4-4-9.6-7.3-16.7-10
			c10.1-5.4,18-10.8,23.8-16.1c5.4-5,9.9-10.8,13.5-17.3c3.5-6.3,6-12.7,7.3-19.3c1.1-5.3,1.8-12.3,2.2-20.9h-35.6
			c-6,0-15.3,0.4-28.1,1.1c-1.4,0.2-2.2-1-2.5-3.6c-1-5.6-1.5-11.6-1.5-17.9c7,0.6,17.6,0.9,31.8,0.9h84.2c13.4,0,25.5-0.4,36.5-1.1
			c1.3,0,2,1.3,2,3.8c0.1,1.3,0.2,3.7,0.2,7.2c0,3.5-0.1,5.9-0.2,7.1c0,2.1-0.9,3.2-2.7,3.2c-13.2-0.5-25.1-0.7-35.6-0.7H522.6z
			 M454.5,16.4c10.9,0.6,21.3,0.9,31.1,0.9h42c12.8,0,23.3-0.2,31.6-0.7c1.5,0,2.3,1.2,2.3,3.6c0.2,2.3,0.3,4.6,0.3,6.8
			c0,2.3-0.1,4.6-0.3,6.9c0,2.4-0.8,3.6-2.5,3.6c-10.2-0.4-20.6-0.5-31.4-0.5h-42c-3.5,0-12.4,0.2-26.6,0.7c-2,0-3-1.1-3.2-3.2
			c-0.2-1.7-0.4-4.6-0.6-8.8C454.8,21.3,454.6,18.2,454.5,16.4z"/>
		<path id="XMLID_39_" class="st0" d="M730.1,88.4c17.4,12.9,34.7,28,51.9,45.3c1,1,1.5,1.9,1.5,2.7c0,0.8-0.4,1.7-1.3,2.7
			c-4,4.8-8.1,9.1-12.5,12.8c-0.8,0.7-1.6,1.1-2.3,1.1c-0.7,0-1.6-0.5-2.7-1.5c-14.1-16.5-30.3-32-48.7-46.5
			c-19.6,20.4-40.6,36.9-62.9,49.5c-2.3,1-3.7,1.5-4.3,1.5c-1.2,0-2.3-0.5-3.2-1.6c-3.5-4.3-8.7-8.4-15.7-12.3
			c15.1-7.6,28-15.5,38.8-23.6c8.8-6.6,17.8-14.6,27.2-24.1c13.4-13.8,25.1-29.5,35.2-47l-48.3,0.2c-9.6,0-19.5,0.4-29.6,1.2
			c-1.2,0.1-2-0.9-2.5-3.2c-1.1-4.7-1.6-11.2-1.6-19.5c6.7,0.5,17.3,0.7,31.7,0.7h51.5c6.5,0,10.8-0.6,12.9-1.7
			c0.7-0.5,1.4-0.7,2.1-0.7c0.6,0,1.7,0.5,3.2,1.5c4,3.2,8.1,7.6,12.2,13.2c0.6,1,0.9,1.8,0.9,2.4c0,1.3-0.8,2.5-2.5,3.8
			c-2.6,2.3-4.8,5-6.9,8.3C747,65.2,739,76.9,730.1,88.4z"/>
		<path id="XMLID_41_" class="st0" d="M884.7,60.6c23.5,7.4,43.4,15.9,59.5,25.5c1.6,0.9,2.5,1.9,2.5,3.2c0,0.5-0.1,1-0.4,1.6
			c-2.3,5.9-5,11.3-8,16.3c-0.8,1.4-1.6,2.1-2.5,2.1c-0.7,0-1.4-0.3-2.1-0.9c-17.6-11.3-34-19.3-49.2-24.1v41.4
			c0,6.8,0.2,19.1,0.7,36.7c0,0.2,0,0.4,0,0.5c0,1.5-1.1,2.3-3.4,2.3c-2.8,0.2-5.6,0.3-8.3,0.3c-2.8,0-5.6-0.1-8.3-0.3
			c-2.4,0-3.6-0.9-3.6-2.8c0.5-12.1,0.7-24.4,0.7-36.9V33.4c0-11.4-0.6-20.6-1.8-27.7c11,0.7,18.8,1.7,23.4,3
			c2.4,0.5,3.6,1.6,3.6,3.2c0,1-0.5,2.5-1.6,4.3c-0.9,1.6-1.3,7.5-1.3,17.6V60.6z"/>
	</g>
	<g id="XMLID_1_">
		<path id="XMLID_5_" class="st0" d="M71.5,259.4c-0.5-10.5-1.3-24.7-1-36.5H70c-2,11.8-4.9,25.4-7,33.9l-9.5,39.4H38.3l-9.2-38.8
			c-2.1-8.8-5.1-22.6-6.7-34.5h-0.5c-0.3,11.9-1,25.9-1.6,36.8l-1.8,38.3H0l8-110.3h22.6l8.8,39.9c3.1,13.9,5.9,26.2,7.9,38.6h0.3
			c1.6-12.3,4.1-24.7,7-38.6l8.7-39.9h22.6l6.7,110.3H73.5L71.5,259.4z"/>
		<path id="XMLID_7_" class="st0" d="M196.4,241c0,41.6-14.7,58.4-35.7,58.4c-25,0-34.9-26.5-34.9-56.8c0-30.1,11.9-56.1,36.3-56.1
			C188.9,186.5,196.4,215.8,196.4,241z M148.1,242.9c0,25,4.7,37.8,13.4,37.8c9,0,12.4-16.4,12.4-38.8c0-19.3-2.9-36.8-12.6-36.8
			C152.9,205.1,148.1,219.2,148.1,242.9z"/>
		<path id="XMLID_10_" class="st0" d="M232.9,298.1V187.8h19.6l17,43.2c3.3,8.5,8.7,22.7,11.8,32.2h0.3c-0.7-11.6-2.1-30.8-2.1-51.1
			v-24.4h18.8v110.3h-19.6l-16.9-41.9c-3.6-9.3-8.7-23.2-11.1-33.2h-0.3c0.5,11.1,1.3,28.1,1.3,50.2v24.9H232.9z"/>
		<path id="XMLID_12_" class="st0" d="M405.4,241c0,41.6-14.7,58.4-35.7,58.4c-25,0-34.9-26.5-34.9-56.8c0-30.1,11.9-56.1,36.3-56.1
			C397.8,186.5,405.4,215.8,405.4,241z M357.1,242.9c0,25,4.7,37.8,13.4,37.8c9,0,12.4-16.4,12.4-38.8c0-19.3-2.9-36.8-12.6-36.8
			C361.8,205.1,357.1,219.2,357.1,242.9z"/>
		<path id="XMLID_15_" class="st0" d="M503.1,295.1c-4.7,2-14.9,3.9-22.9,3.9c-12.6,0-22.1-3.6-29.5-11
			c-9.5-9.2-14.6-25.5-14.2-44.5c0.5-40.1,23.4-56.8,46.8-56.8c8.3,0,14.6,1.6,18,3.3l-3.8,18.5c-3.1-1.6-7.2-2.5-12.6-2.5
			c-14.6,0-26.2,10-26.2,38.8c0,26.5,10.3,36,20.3,36c2,0,3.4-0.2,4.3-0.5v-26.7h-9.8v-17.5h29.6V295.1z"/>
		<path id="XMLID_17_" class="st0" d="M559.5,272.9l-4.9,25.2h-20.8l23.9-110.3h25.7l21.4,110.3h-20.8l-4.7-25.2H559.5z
			 M577.4,256.2l-3.6-23.1c-1.1-6.7-2.6-17.7-3.6-25h-0.5c-1.1,7.4-2.8,18.8-3.9,25.2l-4.1,22.9H577.4z"/>
		<path id="XMLID_20_" class="st0" d="M643.6,207.6h-19.5v-19.8h60.6v19.8h-19.6v90.5h-21.4V207.6z"/>
		<path id="XMLID_22_" class="st0" d="M765.6,249.6h-25.2v29.8h28.5v18.7h-49.9V187.8h47.9v18.7h-26.5v25.4h25.2V249.6z"/>
		<path id="XMLID_24_" class="st0" d="M803.9,276.1c4.4,2.5,11.9,4.3,18.2,4.3c10.1,0,15.1-5.2,15.1-12.4c0-8-4.9-11.9-14.2-18
			c-15.1-9.2-20.8-20.8-20.8-30.8c0-17.7,11.8-32.4,34.9-32.4c7.2,0,14.1,2,17.3,3.9l-3.4,18.5c-3.1-2-7.9-3.8-14.1-3.8
			c-9.2,0-13.6,5.6-13.6,11.5c0,6.5,3.3,10,15.2,17.2c14.6,8.8,20,20,20,31.6c0,20.1-14.9,33.4-36.5,33.4c-8.8,0-17.5-2.3-21.1-4.4
			L803.9,276.1z"/>
		<path id="XMLID_26_" class="st0" d="M905.6,207.6h-19.5v-19.8h60.6v19.8h-19.6v90.5h-21.4V207.6z"/>
	</g>
</g>
</svg>
